<svg width="25" height="25" viewBox="0 0 25 25" fill="none" xmlns="http://www.w3.org/2000/svg">
<path d="M23.3773 4.14799C23.0687 3.35089 22.597 2.62703 21.9924 2.02273C21.3879 1.41843 20.6639 0.947014 19.8667 0.638653C18.9338 0.288462 17.9482 0.0991077 16.952 0.0786527C15.668 0.0226527 15.2613 0.00665283 12.0053 0.00665283C8.74933 0.00665283 8.332 0.0066527 7.05867 0.0786527C6.06319 0.0980618 5.07834 0.287455 4.14667 0.638653C3.34925 0.946655 2.62502 1.41795 2.02045 2.02229C1.41587 2.62663 0.944304 3.35068 0.636 4.14799C0.285739 5.0808 0.0968192 6.06644 0.0773331 7.06265C0.0199998 8.34532 0.00266647 8.75199 0.00266647 12.0093C0.00266647 15.2653 0.00266646 15.68 0.0773331 16.956C0.0973331 17.9533 0.285333 18.9373 0.636 19.872C0.94517 20.669 1.41719 21.3928 2.02191 21.997C2.62663 22.6013 3.35075 23.0728 4.148 23.3813C5.07791 23.7456 6.06316 23.9485 7.06133 23.9813C8.34533 24.0373 8.752 24.0547 12.008 24.0547C15.264 24.0547 15.6813 24.0547 16.9547 23.9813C17.9508 23.9611 18.9363 23.7722 19.8693 23.4227C20.6663 23.1136 21.3902 22.6417 21.9946 22.0373C22.5991 21.4328 23.0709 20.709 23.38 19.912C23.7307 18.9787 23.9187 17.9947 23.9387 16.9973C23.996 15.7147 24.0133 15.308 24.0133 12.0507C24.0133 8.79332 24.0133 8.37999 23.9387 7.10399C23.9231 6.09368 23.7332 5.09365 23.3773 4.14799ZM21.7533 16.8573C21.7447 17.6257 21.6045 18.387 21.3387 19.108C21.1384 19.6265 20.8319 20.0973 20.4388 20.4902C20.0456 20.8831 19.5746 21.1894 19.056 21.3893C18.343 21.6539 17.5898 21.7942 16.8293 21.804C15.5627 21.8627 15.2053 21.8773 11.9573 21.8773C8.70667 21.8773 8.37467 21.8773 7.084 21.804C6.3239 21.7947 5.5711 21.6544 4.85867 21.3893C4.33825 21.1906 3.86534 20.8849 3.47052 20.4919C3.0757 20.099 2.76778 19.6275 2.56667 19.108C2.30459 18.3947 2.16442 17.6424 2.152 16.8827C2.09467 15.616 2.08133 15.2587 2.08133 12.0107C2.08133 8.76132 2.08133 8.42932 2.152 7.13732C2.16062 6.36935 2.30087 5.60855 2.56667 4.88799C2.97333 3.83599 3.80667 3.00799 4.85867 2.60532C5.57145 2.34151 6.32403 2.20127 7.084 2.19065C8.352 2.13332 8.708 2.11732 11.9573 2.11732C15.2067 2.11732 15.54 2.11732 16.8293 2.19065C17.5899 2.1998 18.3431 2.34008 19.056 2.60532C19.5746 2.80568 20.0455 3.11226 20.4386 3.50536C20.8317 3.89846 21.1383 4.36941 21.3387 4.88799C21.6007 5.60125 21.7409 6.35353 21.7533 7.11332C21.8107 8.38132 21.8253 8.73732 21.8253 11.9867C21.8253 15.2347 21.8253 15.584 21.768 16.8587H21.7533V16.8573Z" fill="#D3E97A"/>
</svg>
